<?xml version="1.0" encoding="utf-8"?>
<!DOCTYPE svg PUBLIC "-//W3C//DTD SVG 1.1//EN" "http://www.w3.org/Graphics/SVG/1.1/DTD/svg11.dtd">
<svg version="1.1" id="Calque_1" xmlns="http://www.w3.org/2000/svg" xmlns:xlink="http://www.w3.org/1999/xlink" x="0px" y="0px" width="39px" height="18.8px" viewBox="0 0 39 18.8" enable-background="new 0 0 39 18.8" xml:space="preserve">
<g id="sine">
	<path fill="none" stroke="#000000" stroke-linecap="round" d=" M0.583000 13.500 L0.583000 13.500 L1.528825 13.050 L2.474650 12.600 L3.420475 12.150 L4.366300 11.700 L5.312125 11.250 L6.257950 10.800 L7.203775 10.350 L8.149600 9.900 L9.095425 9.450 L10.041250 9.000 L10.987075 8.550 L11.932900 8.100 L12.878725 7.650 L13.824550 7.200 L14.770375 6.750 L15.716200 6.300 L16.662025 5.850 L17.607850 5.400 L18.553675 4.950 L19.499500 4.500 L20.445325 4.950 L21.391150 5.400 L22.336975 5.850 L23.282800 6.300 L24.228625 6.750 L25.174450 7.200 L26.120275 7.650 L27.066100 8.100 L28.011925 8.550 L28.957750 9.000 L29.903575 9.450 L30.849400 9.900 L31.795225 10.350 L32.741050 10.800 L33.686875 11.250 L34.632700 11.700 L35.578525 12.150 L36.524350 12.600 L37.470175 13.050 L38.416000 13.500 "/>
</g>
</svg> 