<?xml version="1.0" encoding="utf-8"?>
<!DOCTYPE svg PUBLIC "-//W3C//DTD SVG 1.1//EN" "http://www.w3.org/Graphics/SVG/1.1/DTD/svg11.dtd">
<svg version="1.1" id="Calque_1" xmlns="http://www.w3.org/2000/svg" xmlns:xlink="http://www.w3.org/1999/xlink" x="0px" y="0px" width="39px" height="18.8px" viewBox="0 0 39 18.8" enable-background="new 0 0 39 18.8" xml:space="preserve">
<g id="sine">
	<path fill="none" stroke="#000000" stroke-linecap="round" d=" M0.583000 13.500 L0.583000 13.499 L1.528825 13.496 L2.474650 13.484 L3.420475 13.456 L4.366300 13.401 L5.312125 13.304 L6.257950 13.147 L7.203775 12.910 L8.149600 12.573 L9.095425 12.120 L10.041250 11.543 L10.987075 10.841 L11.932900 10.027 L12.878725 9.127 L13.824550 8.181 L14.770375 7.238 L15.716200 6.355 L16.662025 5.592 L17.607851 5.001 L18.553675 4.628 L19.499500 4.500 L20.445326 4.628 L21.391150 5.001 L22.336975 5.592 L23.282801 6.355 L24.228624 7.238 L25.174450 8.181 L26.120275 9.127 L27.066101 10.027 L28.011925 10.841 L28.957750 11.543 L29.903576 12.120 L30.849400 12.573 L31.795225 12.910 L32.741051 13.147 L33.686874 13.304 L34.632702 13.401 L35.578526 13.456 L36.524349 13.484 L37.470177 13.496 L38.416000 13.499 "/>
	<text x="0" y="6" fill="black" font-size="5"> blackmanHarris </text>
</g>
</svg> 