<?xml version="1.0" encoding="utf-8"?>
<!DOCTYPE svg PUBLIC "-//W3C//DTD SVG 1.1//EN" "http://www.w3.org/Graphics/SVG/1.1/DTD/svg11.dtd">
<svg version="1.1" id="Calque_1" xmlns="http://www.w3.org/2000/svg" xmlns:xlink="http://www.w3.org/1999/xlink" x="0px" y="0px" width="39px" height="18.8px" viewBox="0 0 39 18.8" enable-background="new 0 0 39 18.8" xml:space="preserve">
<g id="sine">
	<path fill="none" stroke="#000000" stroke-linecap="round" d=" M0.583000 13.500 L0.583000 13.500 L1.528825 13.480 L2.474650 13.417 L3.420475 13.306 L4.366300 13.138 L5.312125 12.902 L6.257950 12.588 L7.203775 12.186 L8.149600 11.693 L9.095425 11.109 L10.041250 10.440 L10.987075 9.701 L11.932900 8.912 L12.878725 8.100 L13.824550 7.297 L14.770375 6.538 L15.716200 5.857 L16.662025 5.287 L17.607851 4.858 L18.553675 4.591 L19.499500 4.500 L20.445326 4.591 L21.391150 4.858 L22.336975 5.287 L23.282801 5.857 L24.228624 6.538 L25.174450 7.297 L26.120275 8.100 L27.066101 8.912 L28.011925 9.701 L28.957750 10.440 L29.903576 11.109 L30.849400 11.693 L31.795225 12.186 L32.741051 12.588 L33.686874 12.902 L34.632702 13.138 L35.578526 13.306 L36.524349 13.417 L37.470177 13.480 L38.416000 13.500 "/>
	<text x="0" y="6" fill="black" font-size="5"> blackman </text>
</g>
</svg> 