<?xml version="1.0" encoding="utf-8"?>
<!DOCTYPE svg PUBLIC "-//W3C//DTD SVG 1.1//EN" "http://www.w3.org/Graphics/SVG/1.1/DTD/svg11.dtd">
<svg version="1.1" id="Calque_1" xmlns="http://www.w3.org/2000/svg" xmlns:xlink="http://www.w3.org/1999/xlink" x="0px" y="0px" width="39px" height="18.8px" viewBox="0 0 39 18.8" enable-background="new 0 0 39 18.8" xml:space="preserve">
<g id="sine">
	<path fill="none" stroke="#000000" stroke-linecap="round" d=" M0.583000 13.500 L0.583000 13.500 L1.528825 13.378 L2.474650 13.500 L3.420475 13.167 L4.366300 13.105 L5.312125 13.315 L6.257950 13.125 L7.203775 12.596 L8.149600 12.271 L9.095425 12.151 L10.041250 12.234 L10.987075 12.522 L11.932900 13.014 L12.878725 13.169 L13.824550 12.063 L14.770375 11.127 L15.716200 10.361 L16.662025 9.766 L17.607851 9.340 L18.553675 9.085 L19.499500 9.000 L20.445326 8.915 L21.391150 8.660 L22.336975 8.234 L23.282801 7.639 L24.228624 6.873 L25.174450 5.937 L26.120275 4.831 L27.066101 4.986 L28.011925 5.478 L28.957750 5.766 L29.903576 5.849 L30.849400 5.728 L31.795225 5.404 L32.741051 4.875 L33.686874 4.685 L34.632702 4.895 L35.578526 4.833 L36.524349 4.500 L37.470177 4.622 L38.416000 4.500 "/>
	<text x="0" y="6" fill="black" font-size="5"> easeInOutBounce </text>
</g>
</svg> 