<?xml version="1.0" encoding="utf-8"?>
<!DOCTYPE svg PUBLIC "-//W3C//DTD SVG 1.1//EN" "http://www.w3.org/Graphics/SVG/1.1/DTD/svg11.dtd">
<svg version="1.1" id="Calque_1" xmlns="http://www.w3.org/2000/svg" xmlns:xlink="http://www.w3.org/1999/xlink" x="0px" y="0px" width="39px" height="18.8px" viewBox="0 0 39 18.8" enable-background="new 0 0 39 18.8" xml:space="preserve">
<g id="sine">
	<path fill="none" stroke="#000000" stroke-linecap="round" d=" M0.583000 13.500 L0.583000 13.500 L1.528825 12.153 L2.474650 10.879 L3.420475 9.680 L4.366300 8.558 L5.312125 7.516 L6.257950 6.554 L7.203775 5.674 L8.149600 4.876 L9.095425 4.159 L10.041250 3.524 L10.987075 2.968 L11.932900 2.490 L12.878725 2.088 L13.824550 1.759 L14.770375 1.500 L15.716200 1.308 L16.662025 1.179 L17.607851 1.108 L18.553675 1.092 L19.499500 1.125 L20.445326 1.203 L21.391150 1.320 L22.336975 1.472 L23.282801 1.652 L24.228624 1.857 L25.174450 2.079 L26.120275 2.315 L27.066101 2.559 L28.011925 2.805 L28.957750 3.050 L29.903576 3.287 L30.849400 3.514 L31.795225 3.725 L32.741051 3.917 L33.686874 4.087 L34.632702 4.231 L35.578526 4.346 L36.524349 4.431 L37.470177 4.482 L38.416000 4.500 "/>
	<text x="0" y="6" fill="black" font-size="5"> easeOutBack </text>
</g>
</svg> 