<?xml version="1.0" encoding="utf-8"?>
<!DOCTYPE svg PUBLIC "-//W3C//DTD SVG 1.1//EN" "http://www.w3.org/Graphics/SVG/1.1/DTD/svg11.dtd">
<svg version="1.1" id="Calque_1" xmlns="http://www.w3.org/2000/svg" xmlns:xlink="http://www.w3.org/1999/xlink" x="0px" y="0px" width="39px" height="18.8px" viewBox="0 0 39 18.8" enable-background="new 0 0 39 18.8" xml:space="preserve">
<g id="sine">
	<path fill="none" stroke="#000000" stroke-linecap="round" d=" M0.583000 13.500 L0.583000 13.500 L1.528825 13.318 L2.474650 13.257 L3.420475 13.318 L4.366300 13.500 L5.312125 13.099 L6.257950 12.834 L7.203775 12.704 L8.149600 12.710 L9.095425 12.852 L10.041250 13.130 L10.987075 13.433 L11.932900 12.751 L12.878725 12.171 L13.824550 11.693 L14.770375 11.317 L15.716200 11.043 L16.662025 10.871 L17.607851 10.802 L18.553675 10.834 L19.499500 10.969 L20.445326 11.205 L21.391150 11.544 L22.336975 11.985 L23.282801 12.528 L24.228624 13.173 L25.174450 12.838 L26.120275 11.689 L27.066101 10.626 L28.011925 9.647 L28.957750 8.754 L29.903576 7.946 L30.849400 7.222 L31.795225 6.584 L32.741051 6.031 L33.686874 5.563 L34.632702 5.181 L35.578526 4.883 L36.524349 4.670 L37.470177 4.543 L38.416000 4.500 "/>
	<text x="0" y="6" fill="black" font-size="5"> easeInBounce </text>
</g>
</svg> 