<?xml version="1.0" encoding="utf-8"?>
<!DOCTYPE svg PUBLIC "-//W3C//DTD SVG 1.1//EN" "http://www.w3.org/Graphics/SVG/1.1/DTD/svg11.dtd">
<svg version="1.1" id="Calque_1" xmlns="http://www.w3.org/2000/svg" xmlns:xlink="http://www.w3.org/1999/xlink" x="0px" y="0px" width="39px" height="18.8px" viewBox="0 0 39 18.8" enable-background="new 0 0 39 18.8" xml:space="preserve">
<g id="sine">
	<path fill="none" stroke="#000000" stroke-linecap="round" d=" M0.583000 13.500 L0.583000 13.500 L1.528825 13.494 L2.474650 13.477 L3.420475 13.449 L4.366300 13.409 L5.312125 13.357 L6.257950 13.293 L7.203775 13.215 L8.149600 13.124 L9.095425 13.019 L10.041250 12.897 L10.987075 12.758 L11.932900 12.600 L12.878725 12.420 L13.824550 12.214 L14.770375 11.976 L15.716200 11.700 L16.662025 11.371 L17.607851 10.962 L18.553675 10.405 L19.499500 9.000 L20.445326 7.595 L21.391150 7.038 L22.336975 6.629 L23.282801 6.300 L24.228624 6.024 L25.174450 5.786 L26.120275 5.580 L27.066101 5.400 L28.011925 5.242 L28.957750 5.103 L29.903576 4.981 L30.849400 4.876 L31.795225 4.785 L32.741051 4.707 L33.686874 4.643 L34.632702 4.591 L35.578526 4.551 L36.524349 4.523 L37.470177 4.506 L38.416000 4.500 "/>
	<text x="0" y="6" fill="black" font-size="5"> easeInOutCircular </text>
</g>
</svg> 