<?xml version="1.0" encoding="utf-8"?>
<!DOCTYPE svg PUBLIC "-//W3C//DTD SVG 1.1//EN" "http://www.w3.org/Graphics/SVG/1.1/DTD/svg11.dtd">
<svg version="1.1" id="Calque_1" xmlns="http://www.w3.org/2000/svg" xmlns:xlink="http://www.w3.org/1999/xlink" x="0px" y="0px" width="39px" height="18.8px" viewBox="0 0 39 18.8" enable-background="new 0 0 39 18.8" xml:space="preserve">
<g id="sine">
	<path fill="none" stroke="#000000" stroke-linecap="round" d=" M0.583000 13.500 L0.583000 13.500 L1.528825 13.457 L2.474650 13.330 L3.420475 13.117 L4.366300 12.819 L5.312125 12.437 L6.257950 11.969 L7.203775 11.416 L8.149600 10.778 L9.095425 10.054 L10.041250 9.246 L10.987075 8.353 L11.932900 7.374 L12.878725 6.311 L13.824550 5.162 L14.770375 4.827 L15.716200 5.472 L16.662025 6.015 L17.607851 6.456 L18.553675 6.795 L19.499500 7.031 L20.445326 7.166 L21.391150 7.198 L22.336975 7.129 L23.282801 6.957 L24.228624 6.683 L25.174450 6.307 L26.120275 5.829 L27.066101 5.249 L28.011925 4.567 L28.957750 4.870 L29.903576 5.148 L30.849400 5.290 L31.795225 5.296 L32.741051 5.166 L33.686874 4.901 L34.632702 4.500 L35.578526 4.682 L36.524349 4.743 L37.470177 4.682 L38.416000 4.500 "/>
	<text x="0" y="6" fill="black" font-size="5"> easeOutBounce </text>
</g>
</svg> 