<?xml version="1.0" encoding="utf-8"?>
<!DOCTYPE svg PUBLIC "-//W3C//DTD SVG 1.1//EN" "http://www.w3.org/Graphics/SVG/1.1/DTD/svg11.dtd">
<svg version="1.1" id="Calque_1" xmlns="http://www.w3.org/2000/svg" xmlns:xlink="http://www.w3.org/1999/xlink" x="0px" y="0px" width="39px" height="18.8px" viewBox="0 0 39 18.8" enable-background="new 0 0 39 18.8" xml:space="preserve">
<g id="sine">
	<path fill="none" stroke="#000000" stroke-linecap="round" d=" M0.583000 13.500 L0.583000 13.500 L1.528825 13.500 L2.474650 13.500 L3.420475 13.500 L4.366300 13.500 L5.312125 13.500 L6.257950 13.499 L7.203775 13.499 L8.149600 13.497 L9.095425 13.495 L10.041250 13.491 L10.987075 13.486 L11.932900 13.478 L12.878725 13.467 L13.824550 13.453 L14.770375 13.433 L15.716200 13.408 L16.662025 13.375 L17.607851 13.334 L18.553675 13.282 L19.499500 13.219 L20.445326 13.141 L21.391150 13.047 L22.336975 12.934 L23.282801 12.800 L24.228624 12.642 L25.174450 12.456 L26.120275 12.239 L27.066101 11.987 L28.011925 11.697 L28.957750 11.364 L29.903576 10.984 L30.849400 10.551 L31.795225 10.060 L32.741051 9.507 L33.686874 8.884 L34.632702 8.186 L35.578526 7.405 L36.524349 6.536 L37.470177 5.570 L38.416000 4.500 "/>
	<text x="0" y="6" fill="black" font-size="5"> easeInQuintic </text>
</g>
</svg> 