<?xml version="1.0" encoding="utf-8"?>
<!DOCTYPE svg PUBLIC "-//W3C//DTD SVG 1.1//EN" "http://www.w3.org/Graphics/SVG/1.1/DTD/svg11.dtd">
<svg version="1.1" id="Calque_1" xmlns="http://www.w3.org/2000/svg" xmlns:xlink="http://www.w3.org/1999/xlink" x="0px" y="0px" width="39px" height="18.8px" viewBox="0 0 39 18.8" enable-background="new 0 0 39 18.8" xml:space="preserve">
<g id="sine">
	<path fill="none" stroke="#000000" stroke-linecap="round" d=" M0.583000 13.500 L0.583000 13.500 L1.528825 13.500 L2.474650 13.500 L3.420475 13.500 L4.366300 13.499 L5.312125 13.498 L6.257950 13.495 L7.203775 13.492 L8.149600 13.486 L9.095425 13.477 L10.041250 13.465 L10.987075 13.449 L11.932900 13.427 L12.878725 13.400 L13.824550 13.365 L14.770375 13.322 L15.716200 13.270 L16.662025 13.206 L17.607851 13.131 L18.553675 13.042 L19.499500 12.938 L20.445326 12.816 L21.391150 12.676 L22.336975 12.516 L23.282801 12.334 L24.228624 12.127 L25.174450 11.893 L26.120275 11.632 L27.066101 11.339 L28.011925 11.013 L28.957750 10.652 L29.903576 10.253 L30.849400 9.814 L31.795225 9.331 L32.741051 8.802 L33.686874 8.224 L34.632702 7.595 L35.578526 6.911 L36.524349 6.169 L37.470177 5.367 L38.416000 4.500 "/>
	<text x="0" y="6" fill="black" font-size="5"> easeInQuartic </text>
</g>
</svg> 