<?xml version="1.0" encoding="utf-8"?>
<!DOCTYPE svg PUBLIC "-//W3C//DTD SVG 1.1//EN" "http://www.w3.org/Graphics/SVG/1.1/DTD/svg11.dtd">
<svg version="1.1" id="Calque_1" xmlns="http://www.w3.org/2000/svg" xmlns:xlink="http://www.w3.org/1999/xlink" x="0px" y="0px" width="39px" height="18.8px" viewBox="0 0 39 18.8" enable-background="new 0 0 39 18.8" xml:space="preserve">
<g id="sine">
	<path fill="none" stroke="#000000" stroke-linecap="round" d=" M0.583000 13.500 L0.583000 13.500 L1.528825 13.500 L2.474650 13.499 L3.420475 13.496 L4.366300 13.491 L5.312125 13.482 L6.257950 13.470 L7.203775 13.452 L8.149600 13.428 L9.095425 13.397 L10.041250 13.359 L10.987075 13.313 L11.932900 13.257 L12.878725 13.191 L13.824550 13.114 L14.770375 13.025 L15.716200 12.924 L16.662025 12.809 L17.607851 12.680 L18.553675 12.535 L19.499500 12.375 L20.445326 12.198 L21.391150 12.003 L22.336975 11.789 L23.282801 11.556 L24.228624 11.303 L25.174450 11.028 L26.120275 10.732 L27.066101 10.413 L28.011925 10.070 L28.957750 9.703 L29.903576 9.311 L30.849400 8.892 L31.795225 8.446 L32.741051 7.973 L33.686874 7.471 L34.632702 6.939 L35.578526 6.377 L36.524349 5.784 L37.470177 5.158 L38.416000 4.500 "/>
	<text x="0" y="6" fill="black" font-size="5"> easeInCubic </text>
</g>
</svg> 