<?xml version="1.0" encoding="utf-8"?>
<!DOCTYPE svg PUBLIC "-//W3C//DTD SVG 1.1//EN" "http://www.w3.org/Graphics/SVG/1.1/DTD/svg11.dtd">
<svg version="1.1" id="Calque_1" xmlns="http://www.w3.org/2000/svg" xmlns:xlink="http://www.w3.org/1999/xlink" x="0px" y="0px" width="39px" height="18.8px" viewBox="0 0 39 18.8" enable-background="new 0 0 39 18.8" xml:space="preserve">
<g id="sine">
	<path fill="none" stroke="#000000" stroke-linecap="round" d=" M0.583000 13.500 L0.583000 13.500 L1.528825 13.494 L2.474650 13.477 L3.420475 13.449 L4.366300 13.410 L5.312125 13.359 L6.257950 13.297 L7.203775 13.224 L8.149600 13.140 L9.095425 13.044 L10.041250 12.938 L10.987075 12.819 L11.932900 12.690 L12.878725 12.549 L13.824550 12.398 L14.770375 12.234 L15.716200 12.060 L16.662025 11.874 L17.607851 11.677 L18.553675 11.469 L19.499500 11.250 L20.445326 11.019 L21.391150 10.778 L22.336975 10.524 L23.282801 10.260 L24.228624 9.984 L25.174450 9.698 L26.120275 9.399 L27.066101 9.090 L28.011925 8.769 L28.957750 8.438 L29.903576 8.094 L30.849400 7.740 L31.795225 7.374 L32.741051 6.997 L33.686874 6.609 L34.632702 6.210 L35.578526 5.799 L36.524349 5.378 L37.470177 4.944 L38.416000 4.500 "/>
	<text x="0" y="6" fill="black" font-size="5"> easeInQuadratic </text>
</g>
</svg> 