<?xml version="1.0" encoding="utf-8"?>
<!DOCTYPE svg PUBLIC "-//W3C//DTD SVG 1.1//EN" "http://www.w3.org/Graphics/SVG/1.1/DTD/svg11.dtd">
<svg version="1.1" id="Calque_1" xmlns="http://www.w3.org/2000/svg" xmlns:xlink="http://www.w3.org/1999/xlink" x="0px" y="0px" width="39px" height="18.8px" viewBox="0 0 39 18.8" enable-background="new 0 0 39 18.8" xml:space="preserve">
<g id="sine">
	<path fill="none" stroke="#000000" stroke-linecap="round" d=" M0.583000 13.500 L0.583000 13.500 L1.528825 12.633 L2.474650 11.831 L3.420475 11.089 L4.366300 10.405 L5.312125 9.776 L6.257950 9.198 L7.203775 8.669 L8.149600 8.186 L9.095425 7.747 L10.041250 7.348 L10.987075 6.987 L11.932900 6.661 L12.878725 6.368 L13.824550 6.107 L14.770375 5.873 L15.716200 5.666 L16.662025 5.484 L17.607851 5.324 L18.553675 5.184 L19.499500 5.062 L20.445326 4.958 L21.391150 4.869 L22.336975 4.794 L23.282801 4.730 L24.228624 4.678 L25.174450 4.635 L26.120275 4.600 L27.066101 4.573 L28.011925 4.551 L28.957750 4.535 L29.903576 4.523 L30.849400 4.514 L31.795225 4.508 L32.741051 4.505 L33.686874 4.502 L34.632702 4.501 L35.578526 4.500 L36.524349 4.500 L37.470177 4.500 L38.416000 4.500 "/>
	<text x="0" y="6" fill="black" font-size="5"> easeOutQuartic </text>
</g>
</svg> 