<?xml version="1.0" encoding="utf-8"?>
<!DOCTYPE svg PUBLIC "-//W3C//DTD SVG 1.1//EN" "http://www.w3.org/Graphics/SVG/1.1/DTD/svg11.dtd">
<svg version="1.1" id="Calque_1" xmlns="http://www.w3.org/2000/svg" xmlns:xlink="http://www.w3.org/1999/xlink" x="0px" y="0px" width="39px" height="18.8px" viewBox="0 0 39 18.8" enable-background="new 0 0 39 18.8" xml:space="preserve">
<g id="sine">
	<path fill="none" stroke="#000000" stroke-linecap="round" d=" M0.583000 13.500 L0.583000 13.500 L1.528825 11.103 L2.474650 7.825 L3.420475 4.710 L4.366300 2.457 L5.312125 1.354 L6.257950 1.328 L7.203775 2.070 L8.149600 3.177 L9.095425 4.278 L10.041250 5.109 L10.987075 5.551 L11.932900 5.611 L12.878725 5.388 L13.824550 5.017 L14.770375 4.631 L15.716200 4.326 L16.662025 4.153 L17.607851 4.113 L18.553675 4.178 L19.499500 4.301 L20.445326 4.436 L21.391150 4.546 L22.336975 4.614 L23.282801 4.634 L24.228624 4.616 L25.174450 4.576 L26.120275 4.529 L27.066101 4.489 L28.011925 4.463 L28.957750 4.454 L29.903576 4.458 L30.849400 4.472 L31.795225 4.488 L32.741051 4.502 L33.686874 4.512 L34.632702 4.516 L35.578526 4.515 L36.524349 4.511 L37.470177 4.505 L38.416000 4.500 "/>
	<text x="0" y="6" fill="black" font-size="5"> easeOutElastic </text>
</g>
</svg> 