<?xml version="1.0" encoding="utf-8"?>
<!DOCTYPE svg PUBLIC "-//W3C//DTD SVG 1.1//EN" "http://www.w3.org/Graphics/SVG/1.1/DTD/svg11.dtd">
<svg version="1.1" id="Calque_1" xmlns="http://www.w3.org/2000/svg" xmlns:xlink="http://www.w3.org/1999/xlink" x="0px" y="0px" width="39px" height="18.8px" viewBox="0 0 39 18.8" enable-background="new 0 0 39 18.8" xml:space="preserve">
<g id="sine">
	<path fill="none" stroke="#000000" stroke-linecap="round" d=" M0.583000 13.500 L0.583000 13.500 L1.528825 13.490 L2.474650 13.488 L3.420475 13.485 L4.366300 13.482 L5.312125 13.479 L6.257950 13.475 L7.203775 13.470 L8.149600 13.465 L9.095425 13.458 L10.041250 13.450 L10.987075 13.441 L11.932900 13.430 L12.878725 13.416 L13.824550 13.401 L14.770375 13.382 L15.716200 13.359 L16.662025 13.333 L17.607851 13.301 L18.553675 13.263 L19.499500 13.219 L20.445326 13.166 L21.391150 13.102 L22.336975 13.027 L23.282801 12.938 L24.228624 12.831 L25.174450 12.705 L26.120275 12.554 L27.066101 12.375 L28.011925 12.162 L28.957750 11.909 L29.903576 11.608 L30.849400 11.250 L31.795225 10.824 L32.741051 10.318 L33.686874 9.716 L34.632702 9.000 L35.578526 8.149 L36.524349 7.136 L37.470177 5.932 L38.416000 4.500 "/>
	<text x="0" y="6" fill="black" font-size="5"> easeInExponential </text>
</g>
</svg> 