<?xml version="1.0" encoding="utf-8"?>
<!DOCTYPE svg PUBLIC "-//W3C//DTD SVG 1.1//EN" "http://www.w3.org/Graphics/SVG/1.1/DTD/svg11.dtd">
<svg version="1.1" id="Calque_1" xmlns="http://www.w3.org/2000/svg" xmlns:xlink="http://www.w3.org/1999/xlink" x="0px" y="0px" width="39px" height="18.8px" viewBox="0 0 39 18.8" enable-background="new 0 0 39 18.8" xml:space="preserve">
<g id="sine">
	<path fill="none" stroke="#000000" stroke-linecap="round" d=" M0.583000 13.500 L0.583000 13.500 L1.528825 13.489 L2.474650 13.455 L3.420475 13.399 L4.366300 13.320 L5.312125 13.219 L6.257950 13.095 L7.203775 12.949 L8.149600 12.780 L9.095425 12.589 L10.041250 12.375 L10.987075 12.139 L11.932900 11.880 L12.878725 11.599 L13.824550 11.295 L14.770375 10.969 L15.716200 10.620 L16.662025 10.249 L17.607851 9.855 L18.553675 9.439 L19.499500 9.000 L20.445326 8.561 L21.391150 8.145 L22.336975 7.751 L23.282801 7.380 L24.228624 7.031 L25.174450 6.705 L26.120275 6.401 L27.066101 6.120 L28.011925 5.861 L28.957750 5.625 L29.903576 5.411 L30.849400 5.220 L31.795225 5.051 L32.741051 4.905 L33.686874 4.781 L34.632702 4.680 L35.578526 4.601 L36.524349 4.545 L37.470177 4.511 L38.416000 4.500 "/>
	<text x="0" y="6" fill="black" font-size="5"> easeInOutQuadratic </text>
</g>
</svg> 