<?xml version="1.0" encoding="utf-8"?>
<!DOCTYPE svg PUBLIC "-//W3C//DTD SVG 1.1//EN" "http://www.w3.org/Graphics/SVG/1.1/DTD/svg11.dtd">
<svg version="1.1" id="Calque_1" xmlns="http://www.w3.org/2000/svg" xmlns:xlink="http://www.w3.org/1999/xlink" x="0px" y="0px" width="39px" height="18.8px" viewBox="0 0 39 18.8" enable-background="new 0 0 39 18.8" xml:space="preserve">
<g id="sine">
	<path fill="none" stroke="#000000" stroke-linecap="round" d=" M0.583000 13.500 L0.583000 13.500 L1.528825 13.500 L2.474650 13.500 L3.420475 13.500 L4.366300 13.499 L5.312125 13.496 L6.257950 13.489 L7.203775 13.476 L8.149600 13.454 L9.095425 13.417 L10.041250 13.359 L10.987075 13.274 L11.932900 13.150 L12.878725 12.978 L13.824550 12.744 L14.770375 12.432 L15.716200 12.025 L16.662025 11.503 L17.607851 10.843 L18.553675 10.018 L19.499500 9.000 L20.445326 7.982 L21.391150 7.157 L22.336975 6.497 L23.282801 5.975 L24.228624 5.568 L25.174450 5.256 L26.120275 5.022 L27.066101 4.850 L28.011925 4.726 L28.957750 4.641 L29.903576 4.583 L30.849400 4.546 L31.795225 4.524 L32.741051 4.511 L33.686874 4.504 L34.632702 4.501 L35.578526 4.500 L36.524349 4.500 L37.470177 4.500 L38.416000 4.500 "/>
	<text x="0" y="6" fill="black" font-size="5"> easeInOutQuintic </text>
</g>
</svg> 