<?xml version="1.0" encoding="utf-8"?>
<!DOCTYPE svg PUBLIC "-//W3C//DTD SVG 1.1//EN" "http://www.w3.org/Graphics/SVG/1.1/DTD/svg11.dtd">
<svg version="1.1" id="Calque_1" xmlns="http://www.w3.org/2000/svg" xmlns:xlink="http://www.w3.org/1999/xlink" x="0px" y="0px" width="39px" height="18.8px" viewBox="0 0 39 18.8" enable-background="new 0 0 39 18.8" xml:space="preserve">
<g id="sine">
	<path fill="none" stroke="#000000" stroke-linecap="round" d=" M0.583000 13.500 L0.583000 13.500 L1.528825 13.493 L2.474650 13.472 L3.420475 13.438 L4.366300 13.389 L5.312125 13.327 L6.257950 13.251 L7.203775 13.162 L8.149600 13.060 L9.095425 12.944 L10.041250 12.815 L10.987075 12.673 L11.932900 12.519 L12.878725 12.352 L13.824550 12.174 L14.770375 11.983 L15.716200 11.781 L16.662025 11.568 L17.607851 11.344 L18.553675 11.109 L19.499500 10.864 L20.445326 10.609 L21.391150 10.345 L22.336975 10.072 L23.282801 9.790 L24.228624 9.500 L25.174450 9.202 L26.120275 8.898 L27.066101 8.586 L28.011925 8.268 L28.957750 7.944 L29.903576 7.615 L30.849400 7.281 L31.795225 6.943 L32.741051 6.601 L33.686874 6.256 L34.632702 5.908 L35.578526 5.558 L36.524349 5.206 L37.470177 4.853 L38.416000 4.500 "/>
	<text x="0" y="6" fill="black" font-size="5"> easeInSine </text>
</g>
</svg> 