<?xml version="1.0" encoding="utf-8"?>
<!DOCTYPE svg PUBLIC "-//W3C//DTD SVG 1.1//EN" "http://www.w3.org/Graphics/SVG/1.1/DTD/svg11.dtd">
<svg version="1.1" id="Calque_1" xmlns="http://www.w3.org/2000/svg" xmlns:xlink="http://www.w3.org/1999/xlink" x="0px" y="0px" width="39px" height="18.8px" viewBox="0 0 39 18.8" enable-background="new 0 0 39 18.8" xml:space="preserve">
<g id="sine">
	<path fill="none" stroke="#000000" stroke-linecap="round" d=" M0.583000 13.500 L0.583000 13.500 L1.528825 13.499 L2.474650 13.495 L3.420475 13.485 L4.366300 13.464 L5.312125 13.430 L6.257950 13.378 L7.203775 13.307 L8.149600 13.212 L9.095425 13.090 L10.041250 12.938 L10.987075 12.751 L11.932900 12.528 L12.878725 12.264 L13.824550 11.957 L14.770375 11.602 L15.716200 11.196 L16.662025 10.736 L17.607851 10.220 L18.553675 9.642 L19.499500 9.000 L20.445326 8.358 L21.391150 7.780 L22.336975 7.264 L23.282801 6.804 L24.228624 6.398 L25.174450 6.044 L26.120275 5.736 L27.066101 5.472 L28.011925 5.249 L28.957750 5.062 L29.903576 4.910 L30.849400 4.788 L31.795225 4.693 L32.741051 4.622 L33.686874 4.570 L34.632702 4.536 L35.578526 4.515 L36.524349 4.505 L37.470177 4.501 L38.416000 4.500 "/>
	<text x="0" y="6" fill="black" font-size="5"> easeInOutCubic </text>
</g>
</svg> 