<?xml version="1.0" encoding="utf-8"?>
<!DOCTYPE svg PUBLIC "-//W3C//DTD SVG 1.1//EN" "http://www.w3.org/Graphics/SVG/1.1/DTD/svg11.dtd">
<svg version="1.1" id="Calque_1" xmlns="http://www.w3.org/2000/svg" xmlns:xlink="http://www.w3.org/1999/xlink" x="0px" y="0px" width="39px" height="18.8px" viewBox="0 0 39 18.8" enable-background="new 0 0 39 18.8" xml:space="preserve">
<g id="sine">
	<path fill="none" stroke="#000000" stroke-linecap="round" d=" M0.583000 13.500 L0.583000 13.500 L1.528825 13.500 L2.474650 13.500 L3.420475 13.498 L4.366300 13.493 L5.312125 13.482 L6.257950 13.464 L7.203775 13.432 L8.149600 13.385 L9.095425 13.315 L10.041250 13.219 L10.987075 13.088 L11.932900 12.917 L12.878725 12.697 L13.824550 12.420 L14.770375 12.076 L15.716200 11.657 L16.662025 11.151 L17.607850 10.548 L18.553675 9.835 L19.499500 9.000 L20.445325 8.165 L21.391150 7.452 L22.336975 6.849 L23.282800 6.343 L24.228625 5.924 L25.174450 5.580 L26.120275 5.303 L27.066100 5.083 L28.011925 4.912 L28.957750 4.781 L29.903575 4.685 L30.849400 4.615 L31.795225 4.568 L32.741050 4.536 L33.686875 4.518 L34.632700 4.507 L35.578525 4.502 L36.524350 4.500 L37.470175 4.500 L38.416000 4.500 "/>
</g>
</svg> 