<?xml version="1.0" encoding="utf-8"?>
<!DOCTYPE svg PUBLIC "-//W3C//DTD SVG 1.1//EN" "http://www.w3.org/Graphics/SVG/1.1/DTD/svg11.dtd">
<svg version="1.1" id="Calque_1" xmlns="http://www.w3.org/2000/svg" xmlns:xlink="http://www.w3.org/1999/xlink" x="0px" y="0px" width="39px" height="18.8px" viewBox="0 0 39 18.8" enable-background="new 0 0 39 18.8" xml:space="preserve">
<g id="sine">
	<path fill="none" stroke="#000000" stroke-linecap="round" d=" M0.583000 13.500 L0.583000 13.500 L1.528825 13.535 L2.474650 13.635 L3.420475 13.791 L4.366300 13.993 L5.312125 14.225 L6.257950 14.471 L7.203775 14.710 L8.149600 14.924 L9.095425 15.090 L10.041250 15.188 L10.987075 15.196 L11.932900 15.096 L12.878725 14.870 L13.824550 14.505 L14.770375 13.988 L15.716200 13.312 L16.662025 12.473 L17.607851 11.471 L18.553675 10.311 L19.499500 9.000 L20.445326 7.689 L21.391150 6.529 L22.336975 5.527 L23.282801 4.688 L24.228624 4.012 L25.174450 3.495 L26.120275 3.130 L27.066101 2.904 L28.011925 2.804 L28.957750 2.812 L29.903576 2.910 L30.849400 3.076 L31.795225 3.290 L32.741051 3.529 L33.686874 3.775 L34.632702 4.007 L35.578526 4.209 L36.524349 4.365 L37.470177 4.465 L38.416000 4.500 "/>
	<text x="0" y="6" fill="black" font-size="5"> easeInOutBack </text>
</g>
</svg> 