<?xml version="1.0" encoding="utf-8"?>
<!DOCTYPE svg PUBLIC "-//W3C//DTD SVG 1.1//EN" "http://www.w3.org/Graphics/SVG/1.1/DTD/svg11.dtd">
<svg version="1.1" id="Calque_1" xmlns="http://www.w3.org/2000/svg" xmlns:xlink="http://www.w3.org/1999/xlink" x="0px" y="0px" width="39px" height="18.8px" viewBox="0 0 39 18.8" enable-background="new 0 0 39 18.8" xml:space="preserve">
<g id="sine">
	<path fill="none" stroke="#000000" stroke-linecap="round" d=" M0.583000 13.500 L0.583000 13.500 L1.528825 13.147 L2.474650 12.794 L3.420475 12.442 L4.366300 12.092 L5.312125 11.744 L6.257950 11.399 L7.203775 11.057 L8.149600 10.719 L9.095425 10.385 L10.041250 10.056 L10.987075 9.732 L11.932900 9.414 L12.878725 9.102 L13.824550 8.798 L14.770375 8.500 L15.716200 8.210 L16.662025 7.928 L17.607851 7.655 L18.553675 7.391 L19.499500 7.136 L20.445326 6.891 L21.391150 6.656 L22.336975 6.432 L23.282801 6.219 L24.228624 6.017 L25.174450 5.826 L26.120275 5.648 L27.066101 5.481 L28.011925 5.327 L28.957750 5.185 L29.903576 5.056 L30.849400 4.940 L31.795225 4.838 L32.741051 4.749 L33.686874 4.673 L34.632702 4.611 L35.578526 4.562 L36.524349 4.528 L37.470177 4.507 L38.416000 4.500 "/>
	<text x="0" y="6" fill="black" font-size="5"> easeOutSine </text>
</g>
</svg> 