<?xml version="1.0" encoding="utf-8"?>
<!DOCTYPE svg PUBLIC "-//W3C//DTD SVG 1.1//EN" "http://www.w3.org/Graphics/SVG/1.1/DTD/svg11.dtd">
<svg version="1.1" id="Calque_1" xmlns="http://www.w3.org/2000/svg" xmlns:xlink="http://www.w3.org/1999/xlink" x="0px" y="0px" width="39px" height="18.8px" viewBox="0 0 39 18.8" enable-background="new 0 0 39 18.8" xml:space="preserve">
<g id="sine">
	<path fill="none" stroke="#000000" stroke-linecap="round" d=" M0.583000 13.500 L0.583000 13.500 L1.528825 13.495 L2.474650 13.492 L3.420475 13.499 L4.366300 13.514 L5.312125 13.523 L6.257950 13.505 L7.203775 13.462 L8.149600 13.433 L9.095425 13.477 L10.041250 13.599 L10.987075 13.693 L11.932900 13.587 L12.878725 13.242 L13.824550 12.944 L14.770375 13.196 L15.716200 14.161 L16.662025 15.086 L17.607851 14.521 L18.553675 11.837 L19.499500 9.000 L20.445326 6.163 L21.391150 3.479 L22.336975 2.914 L23.282801 3.839 L24.228624 4.804 L25.174450 5.056 L26.120275 4.758 L27.066101 4.413 L28.011925 4.307 L28.957750 4.401 L29.903576 4.523 L30.849400 4.567 L31.795225 4.538 L32.741051 4.495 L33.686874 4.477 L34.632702 4.486 L35.578526 4.501 L36.524349 4.508 L37.470177 4.505 L38.416000 4.500 "/>
	<text x="0" y="6" fill="black" font-size="5"> easeInOutElastic </text>
</g>
</svg> 