<?xml version="1.0" encoding="utf-8"?>
<!DOCTYPE svg PUBLIC "-//W3C//DTD SVG 1.1//EN" "http://www.w3.org/Graphics/SVG/1.1/DTD/svg11.dtd">
<svg version="1.1" id="Calque_1" xmlns="http://www.w3.org/2000/svg" xmlns:xlink="http://www.w3.org/1999/xlink" x="0px" y="0px" width="39px" height="18.8px" viewBox="0 0 39 18.8" enable-background="new 0 0 39 18.8" xml:space="preserve">
<g id="sine">
	<path fill="none" stroke="#000000" stroke-linecap="round" d=" M0.583000 13.500 L0.583000 13.500 L1.528825 11.500 L2.474650 10.690 L3.420475 10.080 L4.366300 9.577 L5.312125 9.143 L6.257950 8.759 L7.203775 8.414 L8.149600 8.100 L9.095425 7.812 L10.041250 7.547 L10.987075 7.301 L11.932900 7.073 L12.878725 6.860 L13.824550 6.661 L14.770375 6.474 L15.716200 6.300 L16.662025 6.137 L17.607850 5.984 L18.553675 5.840 L19.499500 5.706 L20.445325 5.580 L21.391150 5.463 L22.336975 5.353 L23.282800 5.251 L24.228625 5.157 L25.174450 5.069 L26.120275 4.989 L27.066100 4.915 L28.011925 4.847 L28.957750 4.786 L29.903575 4.731 L30.849400 4.682 L31.795225 4.639 L32.741050 4.602 L33.686875 4.571 L34.632700 4.545 L35.578525 4.525 L36.524350 4.511 L37.470175 4.503 L38.416000 4.500 "/>
</g>
</svg> 