<?xml version="1.0" encoding="utf-8"?>
<!DOCTYPE svg PUBLIC "-//W3C//DTD SVG 1.1//EN" "http://www.w3.org/Graphics/SVG/1.1/DTD/svg11.dtd">
<svg version="1.1" id="Calque_1" xmlns="http://www.w3.org/2000/svg" xmlns:xlink="http://www.w3.org/1999/xlink" x="0px" y="0px" width="39px" height="18.8px" viewBox="0 0 39 18.8" enable-background="new 0 0 39 18.8" xml:space="preserve">
<g id="sine">
	<path fill="none" stroke="#000000" stroke-linecap="round" d=" M0.583000 13.500 L0.583000 13.500 L1.528825 12.842 L2.474650 12.216 L3.420475 11.623 L4.366300 11.061 L5.312125 10.529 L6.257950 10.027 L7.203775 9.554 L8.149600 9.108 L9.095425 8.689 L10.041250 8.297 L10.987075 7.930 L11.932900 7.587 L12.878725 7.268 L13.824550 6.972 L14.770375 6.697 L15.716200 6.444 L16.662025 6.211 L17.607851 5.997 L18.553675 5.802 L19.499500 5.625 L20.445326 5.465 L21.391150 5.320 L22.336975 5.191 L23.282801 5.076 L24.228624 4.975 L25.174450 4.886 L26.120275 4.809 L27.066101 4.743 L28.011925 4.687 L28.957750 4.641 L29.903576 4.603 L30.849400 4.572 L31.795225 4.548 L32.741051 4.530 L33.686874 4.518 L34.632702 4.509 L35.578526 4.504 L36.524349 4.501 L37.470177 4.500 L38.416000 4.500 "/>
	<text x="0" y="6" fill="black" font-size="5"> easeOutCubic </text>
</g>
</svg> 