<?xml version="1.0" encoding="utf-8"?>
<!DOCTYPE svg PUBLIC "-//W3C//DTD SVG 1.1//EN" "http://www.w3.org/Graphics/SVG/1.1/DTD/svg11.dtd">
<svg version="1.1" id="Calque_1" xmlns="http://www.w3.org/2000/svg" xmlns:xlink="http://www.w3.org/1999/xlink" x="0px" y="0px" width="39px" height="18.8px" viewBox="0 0 39 18.8" enable-background="new 0 0 39 18.8" xml:space="preserve">
<g id="sine">
	<path fill="none" stroke="#000000" stroke-linecap="round" d=" M0.583000 13.500 L0.583000 13.500 L1.528825 13.497 L2.474650 13.489 L3.420475 13.475 L4.366300 13.455 L5.312125 13.429 L6.257950 13.398 L7.203775 13.361 L8.149600 13.318 L9.095425 13.269 L10.041250 13.214 L10.987075 13.153 L11.932900 13.085 L12.878725 13.011 L13.824550 12.931 L14.770375 12.843 L15.716200 12.749 L16.662025 12.647 L17.607851 12.537 L18.553675 12.420 L19.499500 12.294 L20.445326 12.160 L21.391150 12.016 L22.336975 11.863 L23.282801 11.700 L24.228624 11.526 L25.174450 11.339 L26.120275 11.140 L27.066101 10.927 L28.011925 10.699 L28.957750 10.453 L29.903576 10.188 L30.849400 9.900 L31.795225 9.586 L32.741051 9.241 L33.686874 8.857 L34.632702 8.423 L35.578526 7.920 L36.524349 7.310 L37.470177 6.500 L38.416000 4.500 "/>
	<text x="0" y="6" fill="black" font-size="5"> easeInCircular </text>
</g>
</svg> 