<?xml version="1.0" encoding="utf-8"?>
<!DOCTYPE svg PUBLIC "-//W3C//DTD SVG 1.1//EN" "http://www.w3.org/Graphics/SVG/1.1/DTD/svg11.dtd">
<svg version="1.1" id="Calque_1" xmlns="http://www.w3.org/2000/svg" xmlns:xlink="http://www.w3.org/1999/xlink" x="0px" y="0px" width="39px" height="18.8px" viewBox="0 0 39 18.8" enable-background="new 0 0 39 18.8" xml:space="preserve">
<g id="sine">
	<path fill="none" stroke="#000000" stroke-linecap="round" d=" M0.583000 13.500 L0.583000 13.500 L1.528825 13.518 L2.474650 13.569 L3.420475 13.654 L4.366300 13.769 L5.312125 13.913 L6.257950 14.083 L7.203775 14.275 L8.149600 14.486 L9.095425 14.713 L10.041250 14.950 L10.987075 15.195 L11.932900 15.441 L12.878725 15.685 L13.824550 15.921 L14.770375 16.143 L15.716200 16.348 L16.662025 16.528 L17.607851 16.680 L18.553675 16.797 L19.499500 16.875 L20.445326 16.908 L21.391150 16.892 L22.336975 16.821 L23.282801 16.692 L24.228624 16.500 L25.174450 16.241 L26.120275 15.912 L27.066101 15.510 L28.011925 15.032 L28.957750 14.476 L29.903576 13.841 L30.849400 13.124 L31.795225 12.326 L32.741051 11.446 L33.686874 10.484 L34.632702 9.442 L35.578526 8.320 L36.524349 7.121 L37.470177 5.847 L38.416000 4.500 "/>
	<text x="0" y="6" fill="black" font-size="5"> easeInBack </text>
</g>
</svg> 