<?xml version="1.0" encoding="utf-8"?>
<!DOCTYPE svg PUBLIC "-//W3C//DTD SVG 1.1//EN" "http://www.w3.org/Graphics/SVG/1.1/DTD/svg11.dtd">
<svg version="1.1" id="Calque_1" xmlns="http://www.w3.org/2000/svg" xmlns:xlink="http://www.w3.org/1999/xlink" x="0px" y="0px" width="39px" height="18.8px" viewBox="0 0 39 18.8" enable-background="new 0 0 39 18.8" xml:space="preserve">
<g id="sine">
	<path fill="none" stroke="#000000" stroke-linecap="round" d=" M0.583000 13.500 L0.583000 13.500 L1.528825 13.494 L2.474650 13.491 L3.420475 13.488 L4.366300 13.482 L5.312125 13.475 L6.257950 13.465 L7.203775 13.450 L8.149600 13.430 L9.095425 13.401 L10.041250 13.359 L10.987075 13.301 L11.932900 13.219 L12.878725 13.102 L13.824550 12.938 L14.770375 12.705 L15.716200 12.375 L16.662025 11.909 L17.607851 11.250 L18.553675 10.318 L19.499500 9.000 L20.445326 7.682 L21.391150 6.750 L22.336975 6.091 L23.282801 5.625 L24.228624 5.295 L25.174450 5.062 L26.120275 4.898 L27.066101 4.781 L28.011925 4.699 L28.957750 4.641 L29.903576 4.599 L30.849400 4.570 L31.795225 4.550 L32.741051 4.535 L33.686874 4.525 L34.632702 4.518 L35.578526 4.512 L36.524349 4.509 L37.470177 4.506 L38.416000 4.500 "/>
	<text x="0" y="6" fill="black" font-size="5"> easeInOutExponential </text>
</g>
</svg> 