<?xml version="1.0" encoding="utf-8"?>
<!DOCTYPE svg PUBLIC "-//W3C//DTD SVG 1.1//EN" "http://www.w3.org/Graphics/SVG/1.1/DTD/svg11.dtd">
<svg version="1.1" id="Calque_1" xmlns="http://www.w3.org/2000/svg" xmlns:xlink="http://www.w3.org/1999/xlink" x="0px" y="0px" width="39px" height="18.8px" viewBox="0 0 39 18.8" enable-background="new 0 0 39 18.8" xml:space="preserve">
<g id="sine">
	<path fill="none" stroke="#000000" stroke-linecap="round" d=" M0.583000 13.500 L0.583000 13.500 L1.528825 13.495 L2.474650 13.489 L3.420475 13.485 L4.366300 13.484 L5.312125 13.488 L6.257950 13.498 L7.203775 13.512 L8.149600 13.528 L9.095425 13.542 L10.041250 13.546 L10.987075 13.537 L11.932900 13.511 L12.878725 13.471 L13.824550 13.424 L14.770375 13.384 L15.716200 13.366 L16.662025 13.386 L17.607851 13.454 L18.553675 13.564 L19.499500 13.699 L20.445326 13.822 L21.391150 13.887 L22.336975 13.847 L23.282801 13.674 L24.228624 13.369 L25.174450 12.983 L26.120275 12.612 L27.066101 12.389 L28.011925 12.449 L28.957750 12.891 L29.903576 13.722 L30.849400 14.823 L31.795225 15.930 L32.741051 16.672 L33.686874 16.646 L34.632702 15.543 L35.578526 13.290 L36.524349 10.175 L37.470177 6.897 L38.416000 4.500 "/>
	<text x="0" y="6" fill="black" font-size="5"> easeInElastic </text>
</g>
</svg> 