<?xml version="1.0" encoding="utf-8"?>
<!DOCTYPE svg PUBLIC "-//W3C//DTD SVG 1.1//EN" "http://www.w3.org/Graphics/SVG/1.1/DTD/svg11.dtd">
<svg version="1.1" id="Calque_1" xmlns="http://www.w3.org/2000/svg" xmlns:xlink="http://www.w3.org/1999/xlink" x="0px" y="0px" width="39px" height="18.8px" viewBox="0 0 39 18.8" enable-background="new 0 0 39 18.8" xml:space="preserve">
<g id="sine">
	<path fill="none" stroke="#000000" stroke-linecap="round" d=" M0.583000 13.500 L0.583000 13.500 L1.528825 13.056 L2.474650 12.623 L3.420475 12.201 L4.366300 11.790 L5.312125 11.391 L6.257950 11.002 L7.203775 10.626 L8.149600 10.260 L9.095425 9.906 L10.041250 9.562 L10.987075 9.231 L11.932900 8.910 L12.878725 8.601 L13.824550 8.302 L14.770375 8.016 L15.716200 7.740 L16.662025 7.476 L17.607851 7.222 L18.553675 6.981 L19.499500 6.750 L20.445326 6.531 L21.391150 6.322 L22.336975 6.126 L23.282801 5.940 L24.228624 5.766 L25.174450 5.602 L26.120275 5.451 L27.066101 5.310 L28.011925 5.181 L28.957750 5.062 L29.903576 4.956 L30.849400 4.860 L31.795225 4.776 L32.741051 4.702 L33.686874 4.641 L34.632702 4.590 L35.578526 4.551 L36.524349 4.523 L37.470177 4.506 L38.416000 4.500 "/>
	<text x="0" y="6" fill="black" font-size="5"> easeOutQuadratic </text>
</g>
</svg> 