<?xml version="1.0" encoding="utf-8"?>
<!DOCTYPE svg PUBLIC "-//W3C//DTD SVG 1.1//EN" "http://www.w3.org/Graphics/SVG/1.1/DTD/svg11.dtd">
<svg version="1.1" id="Calque_1" xmlns="http://www.w3.org/2000/svg" xmlns:xlink="http://www.w3.org/1999/xlink" x="0px" y="0px" width="39px" height="18.8px" viewBox="0 0 39 18.8" enable-background="new 0 0 39 18.8" xml:space="preserve">
<g id="sine">
	<path fill="none" stroke="#000000" stroke-linecap="round" d=" M0.583000 13.500 L0.583000 13.500 L1.528825 12.430 L2.474650 11.464 L3.420475 10.595 L4.366300 9.814 L5.312125 9.116 L6.257950 8.493 L7.203775 7.940 L8.149600 7.449 L9.095425 7.016 L10.041250 6.636 L10.987075 6.303 L11.932900 6.013 L12.878725 5.761 L13.824550 5.544 L14.770375 5.358 L15.716200 5.200 L16.662025 5.066 L17.607851 4.953 L18.553675 4.859 L19.499500 4.781 L20.445326 4.718 L21.391150 4.666 L22.336975 4.625 L23.282801 4.592 L24.228624 4.567 L25.174450 4.547 L26.120275 4.533 L27.066101 4.522 L28.011925 4.514 L28.957750 4.509 L29.903576 4.505 L30.849400 4.503 L31.795225 4.501 L32.741051 4.501 L33.686874 4.500 L34.632702 4.500 L35.578526 4.500 L36.524349 4.500 L37.470177 4.500 L38.416000 4.500 "/>
	<text x="0" y="6" fill="black" font-size="5"> easeOutQuintic </text>
</g>
</svg> 