<?xml version="1.0" encoding="utf-8"?>
<!DOCTYPE svg PUBLIC "-//W3C//DTD SVG 1.1//EN" "http://www.w3.org/Graphics/SVG/1.1/DTD/svg11.dtd">
<svg version="1.1" id="Calque_1" xmlns="http://www.w3.org/2000/svg" xmlns:xlink="http://www.w3.org/1999/xlink" x="0px" y="0px" width="39px" height="18.8px" viewBox="0 0 39 18.8" enable-background="new 0 0 39 18.8" xml:space="preserve">
<g id="sine">
	<path fill="none" stroke="#000000" stroke-linecap="round" d=" M0.583000 13.500 L0.583000 13.500 L1.528825 12.068 L2.474650 10.864 L3.420475 9.851 L4.366300 9.000 L5.312125 8.284 L6.257950 7.682 L7.203775 7.176 L8.149600 6.750 L9.095425 6.392 L10.041250 6.091 L10.987075 5.838 L11.932900 5.625 L12.878725 5.446 L13.824550 5.295 L14.770375 5.169 L15.716200 5.062 L16.662025 4.973 L17.607851 4.898 L18.553675 4.834 L19.499500 4.781 L20.445326 4.737 L21.391150 4.699 L22.336975 4.667 L23.282801 4.641 L24.228624 4.618 L25.174450 4.599 L26.120275 4.584 L27.066101 4.570 L28.011925 4.559 L28.957750 4.550 L29.903576 4.542 L30.849400 4.535 L31.795225 4.530 L32.741051 4.525 L33.686874 4.521 L34.632702 4.518 L35.578526 4.515 L36.524349 4.512 L37.470177 4.510 L38.416000 4.500 "/>
	<text x="0" y="6" fill="black" font-size="5"> easeOutExponential </text>
</g>
</svg> 