<?xml version="1.0" encoding="utf-8"?>
<!DOCTYPE svg PUBLIC "-//W3C//DTD SVG 1.1//EN" "http://www.w3.org/Graphics/SVG/1.1/DTD/svg11.dtd">
<svg version="1.1" id="Calque_1" xmlns="http://www.w3.org/2000/svg" xmlns:xlink="http://www.w3.org/1999/xlink" x="0px" y="0px" width="39px" height="18.8px" viewBox="0 0 39 18.8" enable-background="new 0 0 39 18.8" xml:space="preserve">
<g id="sine">
	<path fill="none" stroke="#000000" stroke-linecap="round" d=" M0.583000 13.500 L0.583000 13.500 L1.528825 13.486 L2.474650 13.445 L3.420475 13.376 L4.366300 13.280 L5.312125 13.157 L6.257950 13.010 L7.203775 12.837 L8.149600 12.641 L9.095425 12.422 L10.041250 12.182 L10.987075 11.923 L11.932900 11.645 L12.878725 11.351 L13.824550 11.043 L14.770375 10.722 L15.716200 10.391 L16.662025 10.051 L17.607851 9.704 L18.553675 9.353 L19.499500 9.000 L20.445326 8.647 L21.391150 8.296 L22.336975 7.949 L23.282801 7.609 L24.228624 7.278 L25.174450 6.957 L26.120275 6.649 L27.066101 6.355 L28.011925 6.077 L28.957750 5.818 L29.903576 5.578 L30.849400 5.359 L31.795225 5.163 L32.741051 4.990 L33.686874 4.843 L34.632702 4.720 L35.578526 4.624 L36.524349 4.555 L37.470177 4.514 L38.416000 4.500 "/>
	<text x="0" y="6" fill="black" font-size="5"> easeInOutSine </text>
</g>
</svg> 