<?xml version="1.0" encoding="utf-8"?>
<!DOCTYPE svg PUBLIC "-//W3C//DTD SVG 1.1//EN" "http://www.w3.org/Graphics/SVG/1.1/DTD/svg11.dtd">
<svg version="1.1" id="Calque_1" xmlns="http://www.w3.org/2000/svg" xmlns:xlink="http://www.w3.org/1999/xlink" x="0px" y="0px" width="39px" height="18.8px" viewBox="0 0 39 18.8" enable-background="new 0 0 39 18.8" xml:space="preserve">
<g id="sine">
	<path fill="none" stroke="#000000" stroke-linecap="round" d=" M0.583000 13.500 L0.583000 13.500 L1.528825 13.367 L2.474650 13.231 L3.420475 13.092 L4.366300 12.949 L5.312125 12.803 L6.257950 12.652 L7.203775 12.498 L8.149600 12.340 L9.095425 12.178 L10.041250 12.012 L10.987075 11.842 L11.932900 11.668 L12.878725 11.489 L13.824550 11.305 L14.770375 11.117 L15.716200 10.924 L16.662025 10.726 L17.607851 10.523 L18.553675 10.315 L19.499500 10.102 L20.445326 9.884 L21.391150 9.659 L22.336975 9.430 L23.282801 9.194 L24.228624 8.952 L25.174450 8.705 L26.120275 8.451 L27.066101 8.190 L28.011925 7.923 L28.957750 7.649 L29.903576 7.369 L30.849400 7.081 L31.795225 6.786 L32.741051 6.483 L33.686874 6.173 L34.632702 5.855 L35.578526 5.529 L36.524349 5.194 L37.470177 4.852 L38.416000 4.500 "/>
	<text x="0" y="6" fill="black" font-size="5"> exponential </text>
</g>
</svg> 