<?xml version="1.0" encoding="utf-8"?>
<!DOCTYPE svg PUBLIC "-//W3C//DTD SVG 1.1//EN" "http://www.w3.org/Graphics/SVG/1.1/DTD/svg11.dtd">
<svg version="1.1" id="Calque_1" xmlns="http://www.w3.org/2000/svg" xmlns:xlink="http://www.w3.org/1999/xlink" x="0px" y="0px" width="39px" height="18.8px" viewBox="0 0 39 18.8" enable-background="new 0 0 39 18.8" xml:space="preserve">
<g id="sine">
	<path fill="none" stroke="#000000" stroke-linecap="round" d=" M0.583000 13.500 L0.583000 13.491 L1.528825 5.927 L2.474650 7.128 L3.420475 8.139 L4.366300 8.989 L5.312125 9.705 L6.257950 10.307 L7.203775 10.813 L8.149600 11.239 L9.095425 11.598 L10.041250 11.900 L10.987075 12.153 L11.932900 12.367 L12.878725 12.547 L13.824550 12.698 L14.770375 12.825 L15.716200 12.932 L16.662025 13.022 L17.607851 13.098 L18.553675 13.162 L19.499500 13.215 L20.445326 13.261 L21.391150 13.299 L22.336975 13.330 L23.282801 13.357 L24.228624 13.380 L25.174450 13.399 L26.120275 13.415 L27.066101 13.429 L28.011925 13.440 L28.957750 13.449 L29.903576 13.457 L30.849400 13.464 L31.795225 13.470 L32.741051 13.475 L33.686874 13.479 L34.632702 13.482 L35.578526 13.485 L36.524349 13.487 L37.470177 13.489 L38.416000 13.491 "/>
	<text x="0" y="6" fill="black" font-size="5"> expodec </text>
</g>
</svg> 