<?xml version="1.0" encoding="utf-8"?>
<!DOCTYPE svg PUBLIC "-//W3C//DTD SVG 1.1//EN" "http://www.w3.org/Graphics/SVG/1.1/DTD/svg11.dtd">
<svg version="1.1" id="Calque_1" xmlns="http://www.w3.org/2000/svg" xmlns:xlink="http://www.w3.org/1999/xlink" x="0px" y="0px" width="39px" height="18.8px" viewBox="0 0 39 18.8" enable-background="new 0 0 39 18.8" xml:space="preserve">
<g id="sine">
	<path fill="none" stroke="#000000" stroke-linecap="round" d=" M0.583000 13.500 L0.583000 13.105 L1.528825 12.964 L2.474650 12.784 L3.420475 12.559 L4.366300 12.282 L5.312125 11.948 L6.257950 11.554 L7.203775 11.097 L8.149600 10.578 L9.095425 10.003 L10.041250 9.379 L10.987075 8.720 L11.932900 8.041 L12.878725 7.363 L13.824550 6.706 L14.770375 6.097 L15.716200 5.558 L16.662025 5.111 L17.607851 4.777 L18.553675 4.570 L19.499500 4.500 L20.445326 4.570 L21.391150 4.777 L22.336975 5.111 L23.282801 5.558 L24.228624 6.097 L25.174450 6.706 L26.120275 7.363 L27.066101 8.041 L28.011925 8.720 L28.957750 9.379 L29.903576 10.003 L30.849400 10.578 L31.795225 11.097 L32.741051 11.554 L33.686874 11.948 L34.632702 12.282 L35.578526 12.559 L36.524349 12.784 L37.470177 12.964 L38.416000 13.105 "/>
	<text x="0" y="6" fill="black" font-size="5"> gauss </text>
</g>
</svg> 