<?xml version="1.0" encoding="utf-8"?>
<!DOCTYPE svg PUBLIC "-//W3C//DTD SVG 1.1//EN" "http://www.w3.org/Graphics/SVG/1.1/DTD/svg11.dtd">
<svg version="1.1" id="Calque_1" xmlns="http://www.w3.org/2000/svg" xmlns:xlink="http://www.w3.org/1999/xlink" x="0px" y="0px" width="39px" height="18.8px" viewBox="0 0 39 18.8" enable-background="new 0 0 39 18.8" xml:space="preserve">
<g id="sine">
	<path fill="none" stroke="#000000" stroke-linecap="round" d=" M0.583000 13.500 L0.583000 12.780 L1.528825 12.729 L2.474650 12.577 L3.420475 12.329 L4.366300 11.989 L5.312125 11.567 L6.257950 11.073 L7.203775 10.520 L8.149600 9.919 L9.095425 9.288 L10.041250 8.640 L10.987075 7.992 L11.932900 7.361 L12.878725 6.760 L13.824550 6.207 L14.770375 5.713 L15.716200 5.291 L16.662025 4.951 L17.607851 4.703 L18.553675 4.551 L19.499500 4.500 L20.445326 4.551 L21.391150 4.703 L22.336975 4.951 L23.282801 5.291 L24.228624 5.713 L25.174450 6.207 L26.120275 6.760 L27.066101 7.361 L28.011925 7.992 L28.957750 8.640 L29.903576 9.288 L30.849400 9.919 L31.795225 10.520 L32.741051 11.073 L33.686874 11.567 L34.632702 11.989 L35.578526 12.329 L36.524349 12.577 L37.470177 12.729 L38.416000 12.780 "/>
	<text x="0" y="6" fill="black" font-size="5"> hamming </text>
</g>
</svg> 