<?xml version="1.0" encoding="utf-8"?>
<!DOCTYPE svg PUBLIC "-//W3C//DTD SVG 1.1//EN" "http://www.w3.org/Graphics/SVG/1.1/DTD/svg11.dtd">
<svg version="1.1" id="Calque_1" xmlns="http://www.w3.org/2000/svg" xmlns:xlink="http://www.w3.org/1999/xlink" x="0px" y="0px" width="39px" height="18.8px" viewBox="0 0 39 18.8" enable-background="new 0 0 39 18.8" xml:space="preserve">
<g id="sine">
	<path fill="none" stroke="#000000" stroke-linecap="round" d=" M0.583000 13.500 L0.583000 13.500 L1.528825 13.445 L2.474650 13.280 L3.420475 13.010 L4.366300 12.641 L5.312125 12.182 L6.257950 11.645 L7.203775 11.043 L8.149600 10.391 L9.095425 9.704 L10.041250 9.000 L10.987075 8.296 L11.932900 7.609 L12.878725 6.957 L13.824550 6.355 L14.770375 5.818 L15.716200 5.359 L16.662025 4.990 L17.607851 4.720 L18.553675 4.555 L19.499500 4.500 L20.445326 4.555 L21.391150 4.720 L22.336975 4.990 L23.282801 5.359 L24.228624 5.818 L25.174450 6.355 L26.120275 6.957 L27.066101 7.609 L28.011925 8.296 L28.957750 9.000 L29.903576 9.704 L30.849400 10.391 L31.795225 11.043 L32.741051 11.645 L33.686874 12.182 L34.632702 12.641 L35.578526 13.010 L36.524349 13.280 L37.470177 13.445 L38.416000 13.500 "/>
	<text x="0" y="6" fill="black" font-size="5"> hanning </text>
</g>
</svg> 