<?xml version="1.0" encoding="utf-8"?>
<!DOCTYPE svg PUBLIC "-//W3C//DTD SVG 1.1//EN" "http://www.w3.org/Graphics/SVG/1.1/DTD/svg11.dtd">
<svg version="1.1" id="Calque_1" xmlns="http://www.w3.org/2000/svg" xmlns:xlink="http://www.w3.org/1999/xlink" x="0px" y="0px" width="39px" height="18.8px" viewBox="0 0 39 18.8" enable-background="new 0 0 39 18.8" xml:space="preserve">
<g id="sine">
	<path fill="none" stroke="#000000" stroke-linecap="round" d=" M0.583000 13.500 L0.583000 13.366 L1.528825 13.220 L2.474650 13.019 L3.420475 12.755 L4.366300 12.425 L5.312125 12.028 L6.257950 11.562 L7.203775 11.034 L8.149600 10.449 L9.095425 9.818 L10.041250 9.153 L10.987075 8.472 L11.932900 7.790 L12.878725 7.126 L13.824550 6.502 L14.770375 5.934 L15.716200 5.441 L16.662025 5.040 L17.607851 4.744 L18.553675 4.561 L19.499500 4.500 L20.445326 4.561 L21.391150 4.744 L22.336975 5.040 L23.282801 5.441 L24.228624 5.934 L25.174450 6.502 L26.120275 7.126 L27.066101 7.790 L28.011925 8.472 L28.957750 9.153 L29.903576 9.818 L30.849400 10.449 L31.795225 11.034 L32.741051 11.562 L33.686874 12.028 L34.632702 12.425 L35.578526 12.755 L36.524349 13.019 L37.470177 13.220 L38.416000 13.366 "/>
	<text x="0" y="6" fill="black" font-size="5"> kaiser </text>
</g>
</svg> 