<?xml version="1.0" encoding="utf-8"?>
<!DOCTYPE svg PUBLIC "-//W3C//DTD SVG 1.1//EN" "http://www.w3.org/Graphics/SVG/1.1/DTD/svg11.dtd">
<svg version="1.1" id="Calque_1" xmlns="http://www.w3.org/2000/svg" xmlns:xlink="http://www.w3.org/1999/xlink" x="0px" y="0px" width="39px" height="18.8px" viewBox="0 0 39 18.8" enable-background="new 0 0 39 18.8" xml:space="preserve">
<g id="sine">
	<path fill="none" stroke="#000000" stroke-linecap="round" d=" M0.583000 13.500 L0.583000 13.500 L1.528825 13.275 L2.474650 13.050 L3.420475 12.825 L4.366300 12.600 L5.312125 12.375 L6.257950 12.150 L7.203775 11.925 L8.149600 11.700 L9.095425 11.475 L10.041250 11.250 L10.987075 11.025 L11.932900 10.800 L12.878725 10.575 L13.824550 10.350 L14.770375 10.125 L15.716200 9.900 L16.662025 9.675 L17.607851 9.450 L18.553675 9.225 L19.499500 9.000 L20.445326 8.775 L21.391150 8.550 L22.336975 8.325 L23.282801 8.100 L24.228624 7.875 L25.174450 7.650 L26.120275 7.425 L27.066101 7.200 L28.011925 6.975 L28.957750 6.750 L29.903576 6.525 L30.849400 6.300 L31.795225 6.075 L32.741051 5.850 L33.686874 5.625 L34.632702 5.400 L35.578526 5.175 L36.524349 4.950 L37.470177 4.725 L38.416000 4.500 "/>
	<text x="0" y="6" fill="black" font-size="5"> linear </text>
</g>
</svg> 