<?xml version="1.0" encoding="utf-8"?>
<!DOCTYPE svg PUBLIC "-//W3C//DTD SVG 1.1//EN" "http://www.w3.org/Graphics/SVG/1.1/DTD/svg11.dtd">
<svg version="1.1" id="Calque_1" xmlns="http://www.w3.org/2000/svg" xmlns:xlink="http://www.w3.org/1999/xlink" x="0px" y="0px" width="39px" height="18.8px" viewBox="0 0 39 18.8" enable-background="new 0 0 39 18.8" xml:space="preserve">
<g id="sine">
	<path fill="none" stroke="#000000" stroke-linecap="round" d=" M0.583000 13.500 L0.583000 13.500 L1.528825 13.121 L2.474650 12.758 L3.420475 12.409 L4.366300 12.073 L5.312125 11.749 L6.257950 11.436 L7.203775 11.134 L8.149600 10.841 L9.095425 10.558 L10.041250 10.284 L10.987075 10.017 L11.932900 9.758 L12.878725 9.507 L13.824550 9.262 L14.770375 9.024 L15.716200 8.792 L16.662025 8.566 L17.607851 8.345 L18.553675 8.129 L19.499500 7.919 L20.445326 7.713 L21.391150 7.512 L22.336975 7.316 L23.282801 7.123 L24.228624 6.935 L25.174450 6.750 L26.120275 6.570 L27.066101 6.392 L28.011925 6.219 L28.957750 6.048 L29.903576 5.881 L30.849400 5.716 L31.795225 5.555 L32.741051 5.397 L33.686874 5.241 L34.632702 5.088 L35.578526 4.937 L36.524349 4.789 L37.470177 4.643 L38.416000 4.500 "/>
	<text x="0" y="6" fill="black" font-size="5"> logarithm </text>
</g>
</svg> 