<?xml version="1.0" encoding="utf-8"?>
<!DOCTYPE svg PUBLIC "-//W3C//DTD SVG 1.1//EN" "http://www.w3.org/Graphics/SVG/1.1/DTD/svg11.dtd">
<svg version="1.1" id="Calque_1" xmlns="http://www.w3.org/2000/svg" xmlns:xlink="http://www.w3.org/1999/xlink" x="0px" y="0px" width="39px" height="18.8px" viewBox="0 0 39 18.8" enable-background="new 0 0 39 18.8" xml:space="preserve">
<g id="sine">
	<path fill="none" stroke="#000000" stroke-linecap="round" d=" M0.583000 13.500 L0.583000 13.500 L1.528825 13.444 L2.474650 13.345 L3.420475 13.215 L4.366300 13.061 L5.312125 12.890 L6.257950 12.705 L7.203775 12.510 L8.149600 12.307 L9.095425 12.099 L10.041250 11.887 L10.987075 11.671 L11.932900 11.454 L12.878725 11.234 L13.824550 11.013 L14.770375 10.791 L15.716200 10.568 L16.662025 10.345 L17.607851 10.121 L18.553675 9.897 L19.499500 9.673 L20.445326 9.448 L21.391150 9.224 L22.336975 8.999 L23.282801 8.774 L24.228624 8.549 L25.174450 8.325 L26.120275 8.100 L27.066101 7.875 L28.011925 7.650 L28.957750 7.425 L29.903576 7.200 L30.849400 6.975 L31.795225 6.750 L32.741051 6.525 L33.686874 6.300 L34.632702 6.075 L35.578526 5.850 L36.524349 5.625 L37.470177 5.400 L38.416000 5.175 "/>
	<text x="0" y="6" fill="black" font-size="5"> lowpass </text>
</g>
</svg> 