<?xml version="1.0" encoding="utf-8"?>
<!DOCTYPE svg PUBLIC "-//W3C//DTD SVG 1.1//EN" "http://www.w3.org/Graphics/SVG/1.1/DTD/svg11.dtd">
<svg version="1.1" id="Calque_1" xmlns="http://www.w3.org/2000/svg" xmlns:xlink="http://www.w3.org/1999/xlink" x="0px" y="0px" width="39px" height="18.8px" viewBox="0 0 39 18.8" enable-background="new 0 0 39 18.8" xml:space="preserve">
<g id="sine">
	<path fill="none" stroke="#000000" stroke-linecap="round" d=" M0.583000 13.500 L0.583000 13.497 L1.528825 13.492 L2.474650 13.477 L3.420475 13.443 L4.366300 13.380 L5.312125 13.273 L6.257950 13.104 L7.203775 12.855 L8.149600 12.505 L9.095425 12.042 L10.041250 11.457 L10.987075 10.752 L11.932900 9.939 L12.878725 9.046 L13.824550 8.111 L14.770375 7.182 L15.716200 6.316 L16.662025 5.567 L17.607851 4.990 L18.553675 4.625 L19.499500 4.500 L20.445326 4.625 L21.391150 4.990 L22.336975 5.567 L23.282801 6.316 L24.228624 7.182 L25.174450 8.111 L26.120275 9.046 L27.066101 9.939 L28.011925 10.752 L28.957750 11.457 L29.903576 12.042 L30.849400 12.505 L31.795225 12.855 L32.741051 13.104 L33.686874 13.273 L34.632702 13.380 L35.578526 13.443 L36.524349 13.477 L37.470177 13.492 L38.416000 13.497 "/>
	<text x="0" y="6" fill="black" font-size="5"> nuttall </text>
</g>
</svg> 