<?xml version="1.0" encoding="utf-8"?>
<!DOCTYPE svg PUBLIC "-//W3C//DTD SVG 1.1//EN" "http://www.w3.org/Graphics/SVG/1.1/DTD/svg11.dtd">
<svg version="1.1" id="Calque_1" xmlns="http://www.w3.org/2000/svg" xmlns:xlink="http://www.w3.org/1999/xlink" x="0px" y="0px" width="39px" height="18.8px" viewBox="0 0 39 18.8" enable-background="new 0 0 39 18.8" xml:space="preserve">
<g id="sine">
	<path fill="none" stroke="#000000" stroke-linecap="round" d=" M0.583000 13.500 L0.583000 13.500 L1.528825 13.462 L2.474650 13.347 L3.420475 13.157 L4.366300 12.897 L5.312125 12.570 L6.257950 12.182 L7.203775 11.739 L8.149600 11.250 L9.095425 10.722 L10.041250 10.165 L10.987075 9.587 L11.932900 9.000 L12.878725 8.413 L13.824550 7.835 L14.770375 7.278 L15.716200 6.750 L16.662025 6.261 L17.607851 5.818 L18.553675 5.430 L19.499500 5.103 L20.445326 4.843 L21.391150 4.653 L22.336975 4.538 L23.282801 4.500 L24.228624 4.543 L25.174450 4.673 L26.120275 4.888 L27.066101 5.185 L28.011925 5.563 L28.957750 6.017 L29.903576 6.543 L30.849400 7.136 L31.795225 7.790 L32.741051 8.500 L33.686874 9.257 L34.632702 10.056 L35.578526 10.887 L36.524349 11.744 L37.470177 12.618 L38.416000 13.500 "/>
	<text x="0" y="6" fill="black" font-size="5"> rosenbergGlottalPulse </text>
</g>
</svg> 