<?xml version="1.0" encoding="utf-8"?>
<!DOCTYPE svg PUBLIC "-//W3C//DTD SVG 1.1//EN" "http://www.w3.org/Graphics/SVG/1.1/DTD/svg11.dtd">
<svg version="1.1" id="Calque_1" xmlns="http://www.w3.org/2000/svg" xmlns:xlink="http://www.w3.org/1999/xlink" x="0px" y="0px" width="39px" height="18.8px" viewBox="0 0 39 18.8" enable-background="new 0 0 39 18.8" xml:space="preserve">
<g id="sine">
	<path fill="none" stroke="#000000" stroke-linecap="round" d=" M0.583000 13.500 L0.583000 13.500 L1.528825 13.461 L2.474650 13.413 L3.420475 13.357 L4.366300 13.289 L5.312125 13.207 L6.257950 13.110 L7.203775 12.996 L8.149600 12.860 L9.095425 12.701 L10.041250 12.516 L10.987075 12.301 L11.932900 12.055 L12.878725 11.776 L13.824550 11.463 L14.770375 11.116 L15.716200 10.737 L16.662025 10.331 L17.607851 9.901 L18.553675 9.455 L19.499500 9.000 L20.445326 8.545 L21.391150 8.099 L22.336975 7.669 L23.282801 7.263 L24.228624 6.884 L25.174450 6.537 L26.120275 6.224 L27.066101 5.945 L28.011925 5.699 L28.957750 5.484 L29.903576 5.299 L30.849400 5.140 L31.795225 5.004 L32.741051 4.890 L33.686874 4.793 L34.632702 4.711 L35.578526 4.643 L36.524349 4.587 L37.470177 4.539 L38.416000 4.500 "/>
	<text x="0" y="6" fill="black" font-size="5"> tanh </text>
</g>
</svg> 