<?xml version="1.0" encoding="utf-8"?>
<!DOCTYPE svg PUBLIC "-//W3C//DTD SVG 1.1//EN" "http://www.w3.org/Graphics/SVG/1.1/DTD/svg11.dtd">
<svg version="1.1" id="Calque_1" xmlns="http://www.w3.org/2000/svg" xmlns:xlink="http://www.w3.org/1999/xlink" x="0px" y="0px" width="39px" height="18.8px" viewBox="0 0 39 18.8" enable-background="new 0 0 39 18.8" xml:space="preserve">
<g id="sine">
	<path fill="none" stroke="#000000" stroke-linecap="round" d=" M0.583000 13.500 L0.583000 13.500 L1.528825 12.375 L2.474650 11.250 L3.420475 10.125 L4.366300 9.000 L5.312125 7.875 L6.257950 6.750 L7.203775 5.625 L8.149600 4.500 L9.095425 4.500 L10.041250 4.500 L10.987075 4.500 L11.932900 4.500 L12.878725 4.500 L13.824550 4.500 L14.770375 4.500 L15.716200 4.500 L16.662025 4.500 L17.607851 4.500 L18.553675 4.500 L19.499500 4.500 L20.445326 4.500 L21.391150 4.500 L22.336975 4.500 L23.282801 4.500 L24.228624 4.500 L25.174450 4.500 L26.120275 4.500 L27.066101 4.500 L28.011925 4.500 L28.957750 4.500 L29.903576 4.500 L30.849400 4.500 L31.795225 5.625 L32.741051 6.750 L33.686874 7.875 L34.632702 9.000 L35.578526 10.125 L36.524349 11.250 L37.470177 12.375 L38.416000 13.500 "/>
	<text x="0" y="6" fill="black" font-size="5"> trapezoid </text>
</g>
</svg> 