<?xml version="1.0" encoding="utf-8"?>
<!DOCTYPE svg PUBLIC "-//W3C//DTD SVG 1.1//EN" "http://www.w3.org/Graphics/SVG/1.1/DTD/svg11.dtd">
<svg version="1.1" id="Calque_1" xmlns="http://www.w3.org/2000/svg" xmlns:xlink="http://www.w3.org/1999/xlink" x="0px" y="0px" width="39px" height="18.8px" viewBox="0 0 39 18.8" enable-background="new 0 0 39 18.8" xml:space="preserve">
<g id="sine">
	<path fill="none" stroke="#000000" stroke-linecap="round" d=" M0.583000 13.500 L0.583000 13.500 L1.528825 12.623 L2.474650 11.790 L3.420475 11.002 L4.366300 10.260 L5.312125 9.562 L6.257950 8.910 L7.203775 8.302 L8.149600 7.740 L9.095425 7.222 L10.041250 6.750 L10.987075 6.322 L11.932900 5.940 L12.878725 5.602 L13.824550 5.310 L14.770375 5.062 L15.716200 4.860 L16.662025 4.702 L17.607851 4.590 L18.553675 4.523 L19.499500 4.500 L20.445326 4.523 L21.391150 4.590 L22.336975 4.702 L23.282801 4.860 L24.228624 5.062 L25.174450 5.310 L26.120275 5.602 L27.066101 5.940 L28.011925 6.322 L28.957750 6.750 L29.903576 7.222 L30.849400 7.740 L31.795225 8.302 L32.741051 8.910 L33.686874 9.562 L34.632702 10.260 L35.578526 11.002 L36.524349 11.790 L37.470177 12.623 L38.416000 13.500 "/>
	<text x="0" y="6" fill="black" font-size="5"> welch </text>
</g>
</svg> 