<?xml version="1.0" encoding="utf-8"?>
<!-- Generator: Adobe Illustrator 14.0.0, SVG Export Plug-In . SVG Version: 6.00 Build 43363)  -->
<!DOCTYPE svg PUBLIC "-//W3C//DTD SVG 1.1//EN" "http://www.w3.org/Graphics/SVG/1.1/DTD/svg11.dtd">
<svg version="1.1" id="Layer_3" xmlns="http://www.w3.org/2000/svg" xmlns:xlink="http://www.w3.org/1999/xlink" x="0px" y="0px"
	 width="127.7px" height="127.145px" viewBox="0 0 127.7 127.145" enable-background="new 0 0 127.7 127.145" xml:space="preserve">
<path fill="none" stroke="#606060" stroke-width="18.0062" d="M127.788,113.131"/>
<g>
	<path fill="#EEEEEE" d="M64.029,124.006c-33.533,0-60.812-27.111-60.812-60.436c0-33.325,27.28-60.431,60.812-60.431
		c33.534,0,60.813,27.11,60.813,60.433C124.842,96.895,97.561,124.006,64.029,124.006L64.029,124.006z"/>
	<path fill="#999999" d="M64.029,6.351c31.76,0,57.601,25.669,57.601,57.221c0,31.553-25.839,57.223-57.601,57.223
		c-31.759,0-57.599-25.67-57.599-57.223C6.429,32.02,32.268,6.351,64.029,6.351 M64.029-0.073C28.666-0.073,0,28.422,0,63.572
		c0,35.151,28.665,63.647,64.026,63.647s64.028-28.496,64.028-63.647C128.056,28.422,99.39-0.073,64.029-0.073L64.029-0.073z"/>
</g>
<ellipse fill="#EEEEEE" stroke="#999999" stroke-width="2.0007" cx="64.029" cy="63.571" rx="40.129" ry="40.101"/>
<ellipse fill="#EEEEEE" stroke="#999999" stroke-width="2.0007" cx="64.029" cy="63.573" rx="21.159" ry="21.144"/>
<line fill="none" stroke="#999999" stroke-width="2.0007" x1="0" y1="63.572" x2="127.128" y2="63.572"/>
<line fill="none" stroke="#999999" stroke-width="2.0007" x1="64.029" y1="-0.073" x2="64.029" y2="127.217"/>
<line fill="none" stroke="#999999" stroke-width="2.0007" x1="109.065" y1="18.568" x2="18.994" y2="108.576"/>
<line fill="none" stroke="#999999" stroke-width="2.0007" x1="18.994" y1="18.567" x2="109.063" y2="108.576"/>
<rect x="34.462" y="24.713" opacity="0.7" fill="none" stroke="#F18D1B" stroke-width="5.0017" enable-background="new    " width="64.873" height="52.858"/>
<circle fill="#F18D1B" stroke="#F18D1B" stroke-width="2.6623" cx="99.444" cy="76.572" r="4.464"/>
<circle opacity="0.5" fill="#FF0000" enable-background="new    " cx="52.161" cy="39.402" r="4.523"/>
<circle opacity="0.5" fill="#00DC00" enable-background="new    " cx="90.74" cy="55.942" r="4.8"/>
<circle fill="none" stroke="#FF0000" stroke-width="2.7826" cx="52.302" cy="39.544" r="4.665"/>
<circle fill="none" stroke="#00DC00" stroke-width="2.7126" cx="90.991" cy="55.69" r="4.547"/>
</svg>
