<?xml version="1.0" encoding="utf-8"?>
<!-- Generator: Adobe Illustrator 14.0.0, SVG Export Plug-In . SVG Version: 6.00 Build 43363)  -->
<!DOCTYPE svg PUBLIC "-//W3C//DTD SVG 1.1//EN" "http://www.w3.org/Graphics/SVG/1.1/DTD/svg11.dtd">
<svg version="1.1" id="Layer_3" xmlns="http://www.w3.org/2000/svg" xmlns:xlink="http://www.w3.org/1999/xlink" x="0px" y="0px"
	 width="127.7px" height="127.145px" viewBox="0 0 127.7 127.145" enable-background="new 0 0 127.7 127.145" xml:space="preserve">
<path fill="none" stroke="#606060" stroke-width="18" d="M127.7,113.205"/>
<path fill="#EEEEEE" d="M127.7,115.145c0,6.627-5.511,12-12.308,12H12.308c-6.797,0-12.308-5.373-12.308-12V12
	C0,5.373,5.51,0,12.308,0h103.085C122.19,0,127.7,5.373,127.7,12V115.145z"/>
<g>
	<path fill="#565656" d="M116.437,127.157H73.488v-8.11h42.949V127.157z"/>
	<path fill="#565656" d="M94.816,104.674l-1.348,7.36c-3.008-0.827-5.234-2.252-6.68-4.271c-1.445-2.021-2.168-5.022-2.168-9.005
		c0-3.617,0.435-6.311,1.304-8.081s1.973-3.017,3.311-3.737c1.338-0.722,3.794-1.083,7.368-1.083l9.609,0.087
		c2.734,0,4.751-0.13,6.05-0.39s2.69-0.745,4.175-1.458v8.023c-0.547,0.212-1.357,0.472-2.432,0.779
		c-0.488,0.135-0.811,0.231-0.967,0.289c1.367,1.385,2.393,2.867,3.076,4.444c0.684,1.578,1.025,3.262,1.025,5.051
		c0,3.156-0.869,5.643-2.607,7.461s-3.936,2.728-6.592,2.728c-1.758,0-3.325-0.414-4.702-1.241s-2.432-1.986-3.164-3.478
		s-1.372-3.642-1.919-6.451c-0.723-3.79-1.396-6.416-2.021-7.879h-0.82c-1.582,0-2.71,0.385-3.384,1.154s-1.011,2.223-1.011,4.358
		c0,1.443,0.288,2.568,0.864,3.377C92.36,103.52,93.37,104.174,94.816,104.674z M101.495,93.823c0.352,1.039,0.771,2.685,1.26,4.936
		s0.967,3.723,1.436,4.416c0.762,1.058,1.729,1.587,2.9,1.587c1.152,0,2.148-0.423,2.988-1.27s1.26-1.924,1.26-3.232
		c0-1.463-0.488-2.857-1.465-4.186c-0.742-0.981-1.65-1.625-2.725-1.934c-0.703-0.211-2.041-0.317-4.014-0.317H101.495z"/>
	<path fill="#565656" d="M116.437,78.208H73.488v-8.109h15.469c-2.891-2.501-4.336-5.465-4.336-8.889
		c0-3.732,1.372-6.821,4.116-9.264s6.685-3.666,11.821-3.666c5.312,0,9.404,1.246,12.275,3.737c2.871,2.492,4.307,5.518,4.307,9.077
		c0,1.751-0.444,3.477-1.333,5.18c-0.889,1.702-2.202,3.17-3.94,4.401h4.57V78.208z M100.206,70.156c3.223,0,5.605-0.5,7.148-1.501
		c2.188-1.404,3.281-3.271,3.281-5.599c0-1.79-0.776-3.314-2.329-4.575c-1.553-1.26-3.999-1.89-7.339-1.89
		c-3.555,0-6.118,0.635-7.69,1.905s-2.358,2.896-2.358,4.878c0,1.943,0.767,3.559,2.3,4.848S97.081,70.156,100.206,70.156z"/>
	<path fill="#565656" d="M106.534,24.008l1.377-8.081c3.008,1.039,5.298,2.68,6.87,4.921c1.572,2.242,2.358,5.046,2.358,8.413
		c0,5.33-1.768,9.274-5.303,11.833c-2.832,2.02-6.406,3.03-10.723,3.03c-5.156,0-9.194-1.328-12.114-3.983s-4.38-6.013-4.38-10.072
		c0-4.56,1.528-8.158,4.585-10.794c3.057-2.636,7.739-3.896,14.048-3.781v20.318c2.441-0.058,4.341-0.711,5.698-1.962
		c1.357-1.25,2.036-2.809,2.036-4.676c0-1.27-0.352-2.337-1.055-3.204C109.23,25.105,108.097,24.451,106.534,24.008z M98.214,23.546
		c-2.383,0.058-4.194,0.664-5.435,1.818s-1.86,2.559-1.86,4.214c0,1.771,0.654,3.232,1.963,4.387s3.086,1.722,5.332,1.703V23.546z"
		/>
	<path fill="#565656" d="M116.437,8.885H73.488v-8.11h42.949V8.885z"/>
</g>
<path fill="none" stroke="#606060" stroke-width="18" d="M511.7,123.205"/>
</svg>
