<?xml version="1.0" encoding="utf-8"?>
<!-- Generator: Adobe Illustrator 14.0.0, SVG Export Plug-In . SVG Version: 6.00 Build 43363)  -->
<!DOCTYPE svg PUBLIC "-//W3C//DTD SVG 1.1//EN" "http://www.w3.org/Graphics/SVG/1.1/DTD/svg11.dtd">
<svg version="1.1" id="Layer_3" xmlns="http://www.w3.org/2000/svg" xmlns:xlink="http://www.w3.org/1999/xlink" x="0px" y="0px"
	 width="127.7px" height="127.145px" viewBox="0 0 127.7 127.145" enable-background="new 0 0 127.7 127.145" xml:space="preserve">
<polygon fill="#D0D0D0" points="8.635,9.115 127.7,8.745 127.7,93.073 8.635,93.073 "/>
<polygon fill="#EEEEEE" points="7.635,93.073 126.7,93.327 126.7,127.145 7.635,127.145 "/>
<path fill="none" stroke="#999999" stroke-width="10" d="M5,127.145V30.499C5,16.969,16.577,6,30.858,6H127.7"/>
<path fill="none" stroke="#606060" stroke-width="18" d="M127.7,113.205"/>
<path fill="#545454" d="M63.85,6.025c0,4.014-2.31,7.264-9.056,7.264H38.305c-6.741,0-9.051-3.25-9.051-7.264l0,0
	c0-4.014,2.31-7.267,9.051-7.267h16.489C61.539-1.241,63.85,2.01,63.85,6.025L63.85,6.025z"/>
<line fill="none" stroke="#999999" stroke-width="10" x1="8.635" y1="98.073" x2="127.7" y2="98.073"/>
<ellipse fill="#A7A7A7" stroke="#565656" stroke-width="6" cx="55.802" cy="51.573" rx="31.409" ry="30.909"/>
<polyline fill="#565656" points="81.254,47.529 55.486,73.298 29.716,47.529 "/>
</svg>
